<?xml version="1.0" encoding="UTF-8" standalone="no"?>
<!DOCTYPE svg PUBLIC "-//W3C//DTD SVG 1.1//EN"
 "http://www.w3.org/Graphics/SVG/1.1/DTD/svg11.dtd">
<!-- Generated by graphviz version 14.1.4 (20260321.0153)
 -->
<!-- Title: K Pages: 1 -->
<svg width="147pt" height="118pt"
 viewBox="0.00 0.00 147.00 118.00" xmlns="http://www.w3.org/2000/svg" xmlns:xlink="http://www.w3.org/1999/xlink">
<g id="graph0" class="graph" transform="scale(1 1) rotate(0) translate(4 114)">
<title>K</title>
<!-- w1 -->
<g id="node1" class="node">
<title>w1</title>
<ellipse fill="none" stroke="#111111" cx="25.81" cy="-52.19" rx="25.81" ry="25.81"/>
<text xml:space="preserve" text-anchor="middle" x="25.81" y="-55.04" font-family="et-book, Palatino, serif" font-size="12.00" fill="#111111">w1</text>
<text xml:space="preserve" text-anchor="middle" x="25.81" y="-40.79" font-family="et-book, Palatino, serif" font-size="12.00" fill="#111111">p</text>
</g>
<!-- w2 -->
<g id="node2" class="node">
<title>w2</title>
<ellipse fill="none" stroke="#111111" cx="113.43" cy="-84.19" rx="25.81" ry="25.81"/>
<text xml:space="preserve" text-anchor="middle" x="113.43" y="-87.04" font-family="et-book, Palatino, serif" font-size="12.00" fill="#111111">w2</text>
<text xml:space="preserve" text-anchor="middle" x="113.43" y="-72.79" font-family="et-book, Palatino, serif" font-size="12.00" fill="#111111">p, q</text>
</g>
<!-- w1&#45;&gt;w2 -->
<g id="edge1" class="edge">
<title>w1&#45;&gt;w2</title>
<path fill="none" stroke="#555555" d="M50.21,-60.94C59.66,-64.47 70.72,-68.6 80.87,-72.4"/>
<polygon fill="#555555" stroke="#555555" points="79.93,-74.66 87.35,-74.82 81.65,-70.07 79.93,-74.66"/>
</g>
<!-- w3 -->
<g id="node3" class="node">
<title>w3</title>
<ellipse fill="none" stroke="#111111" cx="113.43" cy="-20.19" rx="20.19" ry="20.19"/>
<text xml:space="preserve" text-anchor="middle" x="113.43" y="-15.92" font-family="et-book, Palatino, serif" font-size="12.00" fill="#111111">w3</text>
</g>
<!-- w1&#45;&gt;w3 -->
<g id="edge2" class="edge">
<title>w1&#45;&gt;w3</title>
<path fill="none" stroke="#555555" d="M50.21,-43.45C61.28,-39.31 74.56,-34.35 86,-30.07"/>
<polygon fill="#555555" stroke="#555555" points="86.83,-32.38 92.52,-27.63 85.11,-27.79 86.83,-32.38"/>
</g>
</g>
</svg>
