<?xml version="1.0" encoding="UTF-8" standalone="no"?>
<!DOCTYPE svg PUBLIC "-//W3C//DTD SVG 1.1//EN"
 "http://www.w3.org/Graphics/SVG/1.1/DTD/svg11.dtd">
<!-- Generated by graphviz version 14.1.4 (20260321.0153)
 -->
<!-- Title: K Pages: 1 -->
<svg width="235pt" height="78pt"
 viewBox="0.00 0.00 235.00 78.00" xmlns="http://www.w3.org/2000/svg" xmlns:xlink="http://www.w3.org/1999/xlink">
<g id="graph0" class="graph" transform="scale(1 1) rotate(0) translate(4 73.62)">
<title>K</title>
<!-- a -->
<g id="node1" class="node">
<title>a</title>
<ellipse fill="none" stroke="#111111" cx="25.81" cy="-25.81" rx="25.81" ry="25.81"/>
<text xml:space="preserve" text-anchor="middle" x="25.81" y="-28.66" font-family="et-book, Palatino, serif" font-size="12.00" fill="#111111">a</text>
<text xml:space="preserve" text-anchor="middle" x="25.81" y="-14.41" font-family="et-book, Palatino, serif" font-size="12.00" fill="#111111">p</text>
</g>
<!-- a&#45;&gt;a -->
<g id="edge1" class="edge">
<title>a&#45;&gt;a</title>
<path fill="none" stroke="#555555" d="M10.28,-46.54C7.11,-58.49 12.29,-69.62 25.81,-69.62 36.05,-69.62 41.51,-63.23 42.17,-54.93"/>
<polygon fill="#555555" stroke="#555555" points="44.62,-54.77 41.49,-48.05 39.74,-55.26 44.62,-54.77"/>
</g>
<!-- b -->
<g id="node2" class="node">
<title>b</title>
<ellipse fill="none" stroke="#111111" cx="113.43" cy="-25.81" rx="25.81" ry="25.81"/>
<text xml:space="preserve" text-anchor="middle" x="113.43" y="-28.66" font-family="et-book, Palatino, serif" font-size="12.00" fill="#111111">b</text>
<text xml:space="preserve" text-anchor="middle" x="113.43" y="-14.41" font-family="et-book, Palatino, serif" font-size="12.00" fill="#111111">p</text>
</g>
<!-- a&#45;&gt;b -->
<g id="edge2" class="edge">
<title>a&#45;&gt;b</title>
<path fill="none" stroke="#555555" d="M52.03,-25.81C60.48,-25.81 70.04,-25.81 79.01,-25.81"/>
<polygon fill="#555555" stroke="#555555" points="78.87,-28.26 85.87,-25.81 78.87,-23.36 78.87,-28.26"/>
</g>
<!-- c -->
<g id="node3" class="node">
<title>c</title>
<ellipse fill="none" stroke="#111111" cx="201.05" cy="-25.81" rx="25.81" ry="25.81"/>
<text xml:space="preserve" text-anchor="middle" x="201.05" y="-28.66" font-family="et-book, Palatino, serif" font-size="12.00" fill="#111111">c</text>
<text xml:space="preserve" text-anchor="middle" x="201.05" y="-14.41" font-family="et-book, Palatino, serif" font-size="12.00" fill="#111111">q</text>
</g>
<!-- b&#45;&gt;c -->
<g id="edge3" class="edge">
<title>b&#45;&gt;c</title>
<path fill="none" stroke="#555555" d="M139.65,-25.81C148.1,-25.81 157.66,-25.81 166.63,-25.81"/>
<polygon fill="#555555" stroke="#555555" points="166.49,-28.26 173.49,-25.81 166.49,-23.36 166.49,-28.26"/>
</g>
</g>
</svg>
