<?xml version="1.0" encoding="UTF-8" standalone="no"?>
<!DOCTYPE svg PUBLIC "-//W3C//DTD SVG 1.1//EN"
 "http://www.w3.org/Graphics/SVG/1.1/DTD/svg11.dtd">
<!-- Generated by graphviz version 14.1.4 (20260321.0153)
 -->
<!-- Title: K Pages: 1 -->
<svg width="235pt" height="105pt"
 viewBox="0.00 0.00 235.00 105.00" xmlns="http://www.w3.org/2000/svg" xmlns:xlink="http://www.w3.org/1999/xlink">
<g id="graph0" class="graph" transform="scale(1 1) rotate(0) translate(4 100.62)">
<title>K</title>
<!-- w1 -->
<g id="node1" class="node">
<title>w1</title>
<ellipse fill="none" stroke="#111111" cx="25.81" cy="-25.81" rx="25.81" ry="25.81"/>
<text xml:space="preserve" text-anchor="middle" x="25.81" y="-28.66" font-family="et-book, Palatino, serif" font-size="12.00" fill="#111111">w1</text>
<text xml:space="preserve" text-anchor="middle" x="25.81" y="-14.41" font-family="et-book, Palatino, serif" font-size="12.00" fill="#111111">p</text>
</g>
<!-- w1&#45;&gt;w1 -->
<g id="edge1" class="edge">
<title>w1&#45;&gt;w1</title>
<path fill="none" stroke="#555555" d="M10.28,-46.54C7.11,-58.49 12.29,-69.62 25.81,-69.62 36.05,-69.62 41.51,-63.23 42.17,-54.93"/>
<polygon fill="#555555" stroke="#555555" points="44.62,-54.77 41.49,-48.05 39.74,-55.26 44.62,-54.77"/>
</g>
<!-- w2 -->
<g id="node2" class="node">
<title>w2</title>
<ellipse fill="none" stroke="#111111" cx="113.43" cy="-52.81" rx="25.81" ry="25.81"/>
<text xml:space="preserve" text-anchor="middle" x="113.43" y="-55.66" font-family="et-book, Palatino, serif" font-size="12.00" fill="#111111">w2</text>
<text xml:space="preserve" text-anchor="middle" x="113.43" y="-41.41" font-family="et-book, Palatino, serif" font-size="12.00" fill="#111111">p, q</text>
</g>
<!-- w1&#45;&gt;w2 -->
<g id="edge2" class="edge">
<title>w1&#45;&gt;w2</title>
<path fill="none" stroke="#555555" d="M50.66,-33.33C59.86,-36.23 70.52,-39.59 80.38,-42.7"/>
<polygon fill="#555555" stroke="#555555" points="79.55,-45.01 86.97,-44.78 81.03,-40.34 79.55,-45.01"/>
</g>
<!-- w3 -->
<g id="node3" class="node">
<title>w3</title>
<ellipse fill="none" stroke="#111111" cx="201.05" cy="-25.81" rx="25.81" ry="25.81"/>
<text xml:space="preserve" text-anchor="middle" x="201.05" y="-28.66" font-family="et-book, Palatino, serif" font-size="12.00" fill="#111111">w3</text>
<text xml:space="preserve" text-anchor="middle" x="201.05" y="-14.41" font-family="et-book, Palatino, serif" font-size="12.00" fill="#111111">q</text>
</g>
<!-- w1&#45;&gt;w3 -->
<g id="edge3" class="edge">
<title>w1&#45;&gt;w3</title>
<path fill="none" stroke="#555555" d="M51.59,-21.8C62.59,-20.22 75.72,-18.59 87.62,-17.81 110.51,-16.31 116.34,-16.31 139.24,-17.81 148.26,-18.4 157.98,-19.48 166.95,-20.66"/>
<polygon fill="#555555" stroke="#555555" points="166.5,-23.07 173.77,-21.6 167.17,-18.21 166.5,-23.07"/>
</g>
<!-- w2&#45;&gt;w2 -->
<g id="edge4" class="edge">
<title>w2&#45;&gt;w2</title>
<path fill="none" stroke="#555555" d="M97.9,-73.54C94.73,-85.49 99.91,-96.62 113.43,-96.62 123.67,-96.62 129.13,-90.23 129.79,-81.93"/>
<polygon fill="#555555" stroke="#555555" points="132.23,-81.77 129.1,-75.05 127.36,-82.26 132.23,-81.77"/>
</g>
<!-- w2&#45;&gt;w3 -->
<g id="edge5" class="edge">
<title>w2&#45;&gt;w3</title>
<path fill="none" stroke="#555555" d="M138.28,-45.29C147.48,-42.39 158.14,-39.02 167.99,-35.92"/>
<polygon fill="#555555" stroke="#555555" points="168.65,-38.28 174.58,-33.84 167.17,-33.61 168.65,-38.28"/>
</g>
<!-- w3&#45;&gt;w3 -->
<g id="edge6" class="edge">
<title>w3&#45;&gt;w3</title>
<path fill="none" stroke="#555555" d="M185.52,-46.54C182.35,-58.49 187.53,-69.62 201.05,-69.62 211.29,-69.62 216.75,-63.23 217.41,-54.93"/>
<polygon fill="#555555" stroke="#555555" points="219.85,-54.77 216.72,-48.05 214.98,-55.26 219.85,-54.77"/>
</g>
</g>
</svg>
