<?xml version="1.0" encoding="UTF-8" standalone="no"?>
<!DOCTYPE svg PUBLIC "-//W3C//DTD SVG 1.1//EN"
 "http://www.w3.org/Graphics/SVG/1.1/DTD/svg11.dtd">
<!-- Generated by graphviz version 14.1.4 (20260321.0153)
 -->
<!-- Title: K Pages: 1 -->
<svg width="235pt" height="110pt"
 viewBox="0.00 0.00 235.00 110.00" xmlns="http://www.w3.org/2000/svg" xmlns:xlink="http://www.w3.org/1999/xlink">
<g id="graph0" class="graph" transform="scale(1 1) rotate(0) translate(4 105.62)">
<title>K</title>
<!-- w1 -->
<g id="node1" class="node">
<title>w1</title>
<ellipse fill="none" stroke="#111111" cx="25.81" cy="-25.81" rx="25.81" ry="25.81"/>
<text xml:space="preserve" text-anchor="middle" x="25.81" y="-28.66" font-family="et-book, Palatino, serif" font-size="12.00" fill="#111111">w1</text>
<text xml:space="preserve" text-anchor="middle" x="25.81" y="-14.41" font-family="et-book, Palatino, serif" font-size="12.00" fill="#111111">p</text>
</g>
<!-- w1&#45;&gt;w1 -->
<g id="edge1" class="edge">
<title>w1&#45;&gt;w1</title>
<path fill="none" stroke="#555555" d="M10.28,-46.54C7.11,-58.49 12.29,-69.62 25.81,-69.62 36.05,-69.62 41.51,-63.23 42.17,-54.93"/>
<polygon fill="#555555" stroke="#555555" points="44.62,-54.77 41.49,-48.05 39.74,-55.26 44.62,-54.77"/>
</g>
<!-- w2 -->
<g id="node2" class="node">
<title>w2</title>
<ellipse fill="none" stroke="#111111" cx="113.43" cy="-57.81" rx="25.81" ry="25.81"/>
<text xml:space="preserve" text-anchor="middle" x="113.43" y="-60.66" font-family="et-book, Palatino, serif" font-size="12.00" fill="#111111">w2</text>
<text xml:space="preserve" text-anchor="middle" x="113.43" y="-46.41" font-family="et-book, Palatino, serif" font-size="12.00" fill="#111111">q</text>
</g>
<!-- w1&#45;&gt;w2 -->
<g id="edge2" class="edge">
<title>w1&#45;&gt;w2</title>
<path fill="none" stroke="#555555" d="M51.57,-28.88C61.57,-31.95 73.17,-36.21 83.55,-40.59"/>
<polygon fill="#555555" stroke="#555555" points="82.42,-42.77 89.81,-43.35 84.39,-38.29 82.42,-42.77"/>
</g>
<!-- w3 -->
<g id="node3" class="node">
<title>w3</title>
<ellipse fill="none" stroke="#111111" cx="201.05" cy="-25.81" rx="25.81" ry="25.81"/>
<text xml:space="preserve" text-anchor="middle" x="201.05" y="-28.66" font-family="et-book, Palatino, serif" font-size="12.00" fill="#111111">w3</text>
<text xml:space="preserve" text-anchor="middle" x="201.05" y="-14.41" font-family="et-book, Palatino, serif" font-size="12.00" fill="#111111">q</text>
</g>
<!-- w1&#45;&gt;w3 -->
<g id="edge3" class="edge">
<title>w1&#45;&gt;w3</title>
<path fill="none" stroke="#555555" d="M50.19,-16.25C61.49,-14.77 75.26,-14.11 87.62,-13.81 110.55,-13.24 116.3,-13.24 139.24,-13.81 148.7,-14.04 158.99,-14.48 168.36,-15.34"/>
<polygon fill="#555555" stroke="#555555" points="167.94,-17.75 175.16,-16.08 168.47,-12.88 167.94,-17.75"/>
</g>
<!-- w2&#45;&gt;w1 -->
<g id="edge4" class="edge">
<title>w2&#45;&gt;w1</title>
<path fill="none" stroke="#555555" d="M87.56,-54.71C77.56,-51.63 65.97,-47.37 55.61,-42.99"/>
<polygon fill="#555555" stroke="#555555" points="56.75,-40.82 49.36,-40.24 54.78,-45.3 56.75,-40.82"/>
</g>
<!-- w2&#45;&gt;w2 -->
<g id="edge5" class="edge">
<title>w2&#45;&gt;w2</title>
<path fill="none" stroke="#555555" d="M97.9,-78.54C94.73,-90.49 99.91,-101.62 113.43,-101.62 123.67,-101.62 129.13,-95.23 129.79,-86.93"/>
<polygon fill="#555555" stroke="#555555" points="132.23,-86.77 129.1,-80.05 127.36,-87.26 132.23,-86.77"/>
</g>
<!-- w2&#45;&gt;w3 -->
<g id="edge6" class="edge">
<title>w2&#45;&gt;w3</title>
<path fill="none" stroke="#555555" d="M135.59,-43.98C145.14,-39.61 156.64,-35.09 167.27,-31.48"/>
<polygon fill="#555555" stroke="#555555" points="167.83,-33.87 173.74,-29.38 166.32,-29.21 167.83,-33.87"/>
</g>
<!-- w3&#45;&gt;w1 -->
<g id="edge7" class="edge">
<title>w3&#45;&gt;w1</title>
<path fill="none" stroke="#555555" d="M175.79,-32.54C164.66,-32.73 151.28,-32.11 139.24,-31.81 116.3,-31.24 110.55,-31.24 87.62,-31.81 78.49,-32.03 68.6,-32.45 59.5,-32.55"/>
<polygon fill="#555555" stroke="#555555" points="59.58,-30.1 52.58,-32.55 59.57,-35 59.58,-30.1"/>
</g>
<!-- w3&#45;&gt;w2 -->
<g id="edge8" class="edge">
<title>w3&#45;&gt;w2</title>
<path fill="none" stroke="#555555" d="M178.82,-39.66C169.25,-44.04 157.73,-48.57 147.1,-52.18"/>
<polygon fill="#555555" stroke="#555555" points="146.54,-49.78 140.63,-54.27 148.05,-54.45 146.54,-49.78"/>
</g>
<!-- w3&#45;&gt;w3 -->
<g id="edge9" class="edge">
<title>w3&#45;&gt;w3</title>
<path fill="none" stroke="#555555" d="M185.52,-46.54C182.35,-58.49 187.53,-69.62 201.05,-69.62 211.29,-69.62 216.75,-63.23 217.41,-54.93"/>
<polygon fill="#555555" stroke="#555555" points="219.85,-54.77 216.72,-48.05 214.98,-55.26 219.85,-54.77"/>
</g>
</g>
</svg>
