<?xml version="1.0" encoding="UTF-8" standalone="no"?>
<!DOCTYPE svg PUBLIC "-//W3C//DTD SVG 1.1//EN"
 "http://www.w3.org/Graphics/SVG/1.1/DTD/svg11.dtd">
<!-- Generated by graphviz version 14.1.4 (20260321.0153)
 -->
<!-- Title: K Pages: 1 -->
<svg width="235pt" height="60pt"
 viewBox="0.00 0.00 235.00 60.00" xmlns="http://www.w3.org/2000/svg" xmlns:xlink="http://www.w3.org/1999/xlink">
<g id="graph0" class="graph" transform="scale(1 1) rotate(0) translate(4 55.62)">
<title>K</title>
<!-- t1 -->
<g id="node1" class="node">
<title>t1</title>
<ellipse fill="none" stroke="#111111" cx="25.81" cy="-25.81" rx="25.81" ry="25.81"/>
<text xml:space="preserve" text-anchor="middle" x="25.81" y="-28.66" font-family="et-book, Palatino, serif" font-size="12.00" fill="#111111">t1</text>
<text xml:space="preserve" text-anchor="middle" x="25.81" y="-14.41" font-family="et-book, Palatino, serif" font-size="12.00" fill="#111111">p</text>
</g>
<!-- t2 -->
<g id="node2" class="node">
<title>t2</title>
<ellipse fill="none" stroke="#111111" cx="113.43" cy="-25.81" rx="25.81" ry="25.81"/>
<text xml:space="preserve" text-anchor="middle" x="113.43" y="-28.66" font-family="et-book, Palatino, serif" font-size="12.00" fill="#111111">t2</text>
<text xml:space="preserve" text-anchor="middle" x="113.43" y="-14.41" font-family="et-book, Palatino, serif" font-size="12.00" fill="#111111">p</text>
</g>
<!-- t1&#45;&gt;t2 -->
<g id="edge1" class="edge">
<title>t1&#45;&gt;t2</title>
<path fill="none" stroke="#555555" d="M52.03,-25.81C60.48,-25.81 70.04,-25.81 79.01,-25.81"/>
<polygon fill="#555555" stroke="#555555" points="78.87,-28.26 85.87,-25.81 78.87,-23.36 78.87,-28.26"/>
</g>
<!-- t3 -->
<g id="node3" class="node">
<title>t3</title>
<ellipse fill="none" stroke="#111111" cx="201.05" cy="-25.81" rx="25.81" ry="25.81"/>
<text xml:space="preserve" text-anchor="middle" x="201.05" y="-28.66" font-family="et-book, Palatino, serif" font-size="12.00" fill="#111111">t3</text>
<text xml:space="preserve" text-anchor="middle" x="201.05" y="-14.41" font-family="et-book, Palatino, serif" font-size="12.00" fill="#111111">q</text>
</g>
<!-- t2&#45;&gt;t3 -->
<g id="edge2" class="edge">
<title>t2&#45;&gt;t3</title>
<path fill="none" stroke="#555555" d="M139.65,-25.81C148.1,-25.81 157.66,-25.81 166.63,-25.81"/>
<polygon fill="#555555" stroke="#555555" points="166.49,-28.26 173.49,-25.81 166.49,-23.36 166.49,-28.26"/>
</g>
</g>
</svg>
