<?xml version="1.0" encoding="UTF-8" standalone="no"?>
<!DOCTYPE svg PUBLIC "-//W3C//DTD SVG 1.1//EN"
 "http://www.w3.org/Graphics/SVG/1.1/DTD/svg11.dtd">
<!-- Generated by graphviz version 14.1.4 (20260321.0153)
 -->
<!-- Title: K Pages: 1 -->
<svg width="1914pt" height="680pt"
 viewBox="0.00 0.00 1914.00 680.00" xmlns="http://www.w3.org/2000/svg" xmlns:xlink="http://www.w3.org/1999/xlink">
<g id="graph0" class="graph" transform="scale(1 1) rotate(0) translate(4 676.38)">
<title>K</title>
<!-- t0 -->
<g id="node1" class="node">
<title>t0</title>
<ellipse fill="none" stroke="#111111" cx="155.56" cy="-466.2" rx="155.56" ry="155.56"/>
<text xml:space="preserve" text-anchor="middle" x="155.56" y="-469.05" font-family="et-book, Palatino, serif" font-size="12.00" fill="#111111">t0</text>
<text xml:space="preserve" text-anchor="middle" x="155.56" y="-454.8" font-family="et-book, Palatino, serif" font-size="12.00" fill="#111111">sepsis_diagnosed, vitals_documented</text>
</g>
<!-- t1h -->
<g id="node2" class="node">
<title>t1h</title>
<ellipse fill="none" stroke="#111111" cx="1083.69" cy="-342.2" rx="262.16" ry="262.16"/>
<text xml:space="preserve" text-anchor="middle" x="1083.69" y="-345.05" font-family="et-book, Palatino, serif" font-size="12.00" fill="#111111">t1h</text>
<text xml:space="preserve" text-anchor="middle" x="1083.69" y="-330.8" font-family="et-book, Palatino, serif" font-size="12.00" fill="#111111">abx_given, cultures_drawn, sepsis_diagnosed, vitals_documented</text>
</g>
<!-- t0&#45;&gt;t1h -->
<g id="edge1" class="edge">
<title>t0&#45;&gt;t1h</title>
<path fill="none" stroke="#555555" d="M311.14,-474.73C439.34,-478.65 625.8,-477.08 785.53,-447.2 800.3,-444.44 815.32,-441.06 830.37,-437.23"/>
<polygon fill="#555555" stroke="#555555" points="830.62,-439.7 836.78,-435.57 829.39,-434.96 830.62,-439.7"/>
</g>
<!-- t2h -->
<g id="node3" class="node">
<title>t2h</title>
<ellipse fill="none" stroke="#111111" cx="1644.01" cy="-342.2" rx="262.16" ry="262.16"/>
<text xml:space="preserve" text-anchor="middle" x="1644.01" y="-345.05" font-family="et-book, Palatino, serif" font-size="12.00" fill="#111111">t2h</text>
<text xml:space="preserve" text-anchor="middle" x="1644.01" y="-330.8" font-family="et-book, Palatino, serif" font-size="12.00" fill="#111111">abx_given, cultures_drawn, sepsis_diagnosed, vitals_documented</text>
</g>
<!-- t0&#45;&gt;t2h -->
<g id="edge2" class="edge">
<title>t0&#45;&gt;t2h</title>
<path fill="none" stroke="#555555" d="M299.3,-526.66C528.19,-614.32 987.94,-751.9 1345.85,-613.2 1387.53,-597.05 1426.95,-572.03 1462.62,-543.59"/>
<polygon fill="#555555" stroke="#555555" points="1464.16,-545.5 1468.06,-539.19 1461.08,-541.69 1464.16,-545.5"/>
</g>
<!-- t30min -->
<g id="node4" class="node">
<title>t30min</title>
<ellipse fill="none" stroke="#111111" cx="566.33" cy="-219.2" rx="219.2" ry="219.2"/>
<text xml:space="preserve" text-anchor="middle" x="566.33" y="-222.05" font-family="et-book, Palatino, serif" font-size="12.00" fill="#111111">t30min</text>
<text xml:space="preserve" text-anchor="middle" x="566.33" y="-207.8" font-family="et-book, Palatino, serif" font-size="12.00" fill="#111111">cultures_drawn, sepsis_diagnosed, vitals_documented</text>
</g>
<!-- t0&#45;&gt;t30min -->
<g id="edge3" class="edge">
<title>t0&#45;&gt;t30min</title>
<path fill="none" stroke="#555555" d="M289.28,-386.01C315.5,-370.17 343.52,-353.24 371.28,-336.46"/>
<polygon fill="#555555" stroke="#555555" points="372.32,-338.7 377.04,-332.98 369.78,-334.5 372.32,-338.7"/>
</g>
<!-- t1h&#45;&gt;t2h -->
<g id="edge4" class="edge">
<title>t1h&#45;&gt;t2h</title>
<path fill="none" stroke="#555555" d="M1346.28,-342.2C1355.29,-342.2 1364.32,-342.2 1373.34,-342.2"/>
<polygon fill="#555555" stroke="#555555" points="1373.11,-344.65 1380.11,-342.2 1373.11,-339.75 1373.11,-344.65"/>
</g>
<!-- t30min&#45;&gt;t1h -->
<g id="edge5" class="edge">
<title>t30min&#45;&gt;t1h</title>
<path fill="none" stroke="#555555" d="M779.92,-269.94C793.25,-273.12 806.74,-276.34 820.26,-279.57"/>
<polygon fill="#555555" stroke="#555555" points="819.36,-281.87 826.74,-281.12 820.5,-277.11 819.36,-281.87"/>
</g>
<!-- t30min&#45;&gt;t2h -->
<g id="edge6" class="edge">
<title>t30min&#45;&gt;t2h</title>
<path fill="none" stroke="#555555" d="M749.42,-98.35C772.9,-87.27 797.25,-77.76 821.53,-71.2 1046.51,-10.48 1128.57,13 1345.85,-71.2 1387.53,-87.35 1426.95,-112.37 1462.62,-140.81"/>
<polygon fill="#555555" stroke="#555555" points="1461.08,-142.72 1468.06,-145.21 1464.16,-138.91 1461.08,-142.72"/>
</g>
</g>
</svg>
